<?xml version="1.0" standalone="no"?>
<!DOCTYPE svg PUBLIC "-//W3C//DTD SVG 20010904//EN"
 "http://www.w3.org/TR/2001/REC-SVG-20010904/DTD/svg10.dtd">
<svg version="1.0" xmlns="http://www.w3.org/2000/svg"
 width="799.000000pt" height="799.000000pt" viewBox="0 0 799.000000 799.000000"
 preserveAspectRatio="xMidYMid meet">
<metadata>
Created by potrace 1.11, written by Peter Selinger 2001-2013
</metadata>
<g transform="translate(0.000000,799.000000) scale(0.100000,-0.100000)"
fill="#000000" stroke="none">
<path d="M3270 6585 c-32 -11 -87 -38 -220 -106 -25 -13 -47 -27 -48 -31 -2
-5 -8 -5 -13 -2 -6 3 -15 1 -22 -4 -7 -6 -32 -13 -57 -17 -25 -4 -49 -8 -55
-9 -5 -2 -27 -6 -48 -11 -21 -4 -41 -13 -44 -20 -7 -21 44 -120 95 -182 50
-61 79 -89 151 -144 54 -41 62 -59 27 -59 -14 0 -26 5 -26 10 0 6 -7 10 -15
10 -12 0 -196 88 -356 171 -100 51 -100 51 -322 -61 -109 -55 -205 -100 -213
-100 -8 0 -14 -4 -14 -8 0 -4 -22 -16 -50 -27 -27 -11 -50 -23 -50 -27 0 -4
-7 -8 -15 -8 -18 0 -177 -80 -187 -94 -4 -6 -8 -8 -8 -4 0 8 -77 -33 -123 -65
-16 -10 -26 -22 -23 -24 3 -3 1 -13 -4 -22 -5 -11 -3 -28 7 -49 18 -37 60 -53
111 -41 21 5 32 3 33 -5 1 -13 8 -74 12 -96 1 -8 6 -20 10 -26 4 -7 9 -29 13
-50 3 -22 21 -97 39 -169 32 -121 38 -147 51 -215 5 -22 6 -86 2 -117 -1 -7
-4 -10 -8 -8 -10 6 -28 -37 -26 -60 4 -36 17 -54 49 -64 18 -5 137 -9 269 -8
151 1 239 -2 241 -8 2 -5 2 -95 0 -200 -1 -104 -4 -273 -6 -374 -3 -158 -5
-185 -20 -196 -9 -6 -13 -15 -9 -19 4 -4 2 -6 -4 -4 -12 4 -84 -43 -84 -55 0
-5 -4 -6 -9 -3 -4 3 -19 -3 -31 -14 -13 -11 -26 -20 -30 -20 -3 0 -16 -9 -28
-20 -12 -12 -22 -18 -22 -15 0 7 -114 -68 -118 -77 -2 -5 -10 -8 -18 -8 -8 0
-14 -5 -14 -10 0 -6 -3 -9 -7 -8 -15 3 -43 -14 -37 -23 3 -5 2 -8 -3 -7 -12 4
-83 -34 -83 -44 0 -5 -7 -8 -15 -8 -7 0 -19 -8 -24 -17 -6 -10 -11 -14 -11
-10 0 5 -13 0 -29 -9 -17 -10 -28 -21 -25 -26 3 -4 -2 -5 -10 -2 -9 3 -16 1
-16 -5 0 -6 -7 -11 -15 -11 -8 0 -15 -4 -15 -10 0 -5 -7 -10 -15 -10 -8 0 -15
-4 -15 -10 0 -5 -5 -10 -10 -10 -13 0 -70 -40 -85 -58 -15 -18 -18 -79 -5 -87
6 -3 8 -10 6 -14 -7 -11 46 -59 69 -62 11 -2 33 0 49 5 30 7 118 63 124 78 2
4 8 6 13 2 5 -3 9 0 9 5 0 6 9 11 19 11 14 0 21 -10 26 -32 4 -18 10 -37 13
-43 4 -5 8 -19 9 -30 2 -11 8 -22 13 -23 6 -2 8 -7 5 -12 -3 -4 2 -26 10 -49
8 -23 11 -41 8 -41 -3 0 2 -10 13 -22 12 -13 13 -18 4 -13 -12 7 -13 6 -4 -6
9 -12 37 -95 36 -109 0 -3 5 -14 11 -25 6 -11 12 -24 13 -30 0 -5 2 -14 4 -20
1 -5 3 -14 4 -20 1 -5 5 -17 8 -25 4 -8 18 -53 33 -100 14 -47 29 -92 32 -100
3 -8 7 -19 7 -25 3 -17 27 -96 38 -124 6 -14 12 -33 14 -41 2 -8 15 -53 29
-100 15 -47 38 -121 52 -165 13 -44 27 -87 30 -95 3 -8 8 -24 10 -35 1 -11 7
-29 12 -40 8 -18 23 -68 25 -87 1 -3 4 -10 9 -14 4 -4 7 -18 7 -30 0 -13 5
-26 10 -29 6 -4 8 -10 5 -15 -3 -5 -1 -19 5 -30 6 -12 13 -29 15 -38 9 -37 25
-93 65 -227 23 -77 42 -146 43 -152 0 -7 3 -13 7 -13 3 0 6 -8 6 -17 1 -10 3
-25 5 -33 4 -13 -139 -15 -1236 -17 -682 -1 -1254 -2 -1272 -2 -30 -1 -32 -3
-30 -39 l1 -38 3991 0 3991 0 0 38 c0 21 -4 38 -10 39 -6 0 -571 1 -1256 1
-685 0 -1248 2 -1252 4 -6 4 5 59 19 94 3 8 7 22 9 30 2 8 12 44 24 79 11 35
17 67 14 72 -3 5 -1 9 4 9 5 0 13 19 19 43 6 23 30 103 53 177 23 74 43 142
45 150 1 8 5 22 8 30 20 50 56 174 52 178 -3 3 -1 10 4 16 7 9 38 100 47 141
1 6 9 29 18 53 8 23 15 43 15 45 -2 8 15 64 22 72 4 6 7 12 7 15 -1 10 69 246
89 300 3 8 8 23 9 32 2 9 14 49 28 90 13 40 47 146 75 235 29 89 56 165 61
168 5 3 37 -13 71 -35 88 -61 144 -83 169 -70 11 6 20 8 20 5 0 -20 50 47 58
77 9 34 7 41 -18 77 -16 21 -43 47 -59 57 -17 10 -31 22 -31 26 0 4 -5 8 -11
8 -6 0 -23 9 -38 19 -15 11 -34 21 -42 23 -8 2 -16 6 -19 9 -11 13 -96 62
-107 62 -7 0 -10 4 -7 8 4 8 -35 25 -49 21 -5 -1 -6 2 -2 8 3 5 2 10 -3 10 -5
0 -29 13 -53 29 -24 16 -47 27 -53 24 -5 -3 -6 -2 -3 4 6 10 -40 38 -55 35 -5
-1 -8 2 -8 6 0 10 -77 62 -91 62 -5 0 -9 4 -9 8 0 5 -21 21 -47 36 -75 42 -87
50 -96 64 -4 6 -13 12 -18 12 -6 0 -38 19 -71 42 -34 23 -68 41 -74 41 -7 0
-11 4 -8 8 2 4 -6 11 -18 15 -13 4 -25 9 -28 13 -3 3 -23 18 -45 32 -22 14
-65 41 -95 61 -191 123 -230 147 -230 140 0 -4 -4 -2 -8 4 -11 16 -245 167
-259 167 -7 0 -13 3 -13 7 0 6 -135 96 -202 135 -9 6 -73 46 -140 89 -68 44
-166 107 -218 141 -87 57 -129 79 -139 75 -2 -1 -8 5 -13 14 -7 12 -13 13 -33
4 -14 -6 -25 -15 -25 -20 0 -4 -6 -8 -13 -8 -14 0 -120 -69 -125 -82 -2 -4 -8
-8 -14 -8 -6 0 -37 -18 -70 -40 -33 -22 -64 -40 -69 -40 -5 0 -9 -4 -9 -9 0
-5 -9 -12 -19 -16 -10 -3 -56 -30 -101 -60 -45 -30 -83 -55 -85 -55 -8 0 -100
-64 -107 -74 -4 -6 -8 -7 -8 -3 0 5 -21 -6 -47 -24 -90 -61 -102 -69 -107 -69
-3 0 -45 -26 -93 -59 -49 -32 -122 -80 -163 -106 -41 -27 -76 -52 -78 -57 -2
-4 -8 -8 -13 -8 -5 0 -33 -16 -64 -35 -67 -43 -105 -59 -117 -47 -14 14 -30
543 -17 579 4 13 37 16 250 17 134 1 253 6 264 11 47 21 55 56 25 114 -10 21
-18 47 -16 57 2 11 7 41 10 67 10 65 11 69 36 167 12 47 24 94 26 105 5 24 8
40 29 125 19 79 28 129 27 153 -1 14 8 17 57 17 74 0 97 23 92 90 -1 19 -45
70 -60 70 -6 0 -11 3 -11 8 0 4 -15 13 -32 20 -18 8 -45 20 -59 27 -14 8 -29
12 -33 8 -3 -3 -6 -1 -6 5 0 7 -3 11 -7 10 -5 -1 -38 12 -74 30 -48 23 -68 38
-71 55 -4 22 -3 22 96 22 131 0 189 25 282 121 36 36 63 68 60 71 -2 3 3 14
12 25 9 11 24 28 32 38 8 9 34 21 57 25 24 4 45 11 48 15 3 5 -8 23 -25 41
-16 19 -30 36 -31 39 0 3 -3 14 -5 25 -3 11 -5 29 -5 40 0 10 -5 25 -11 32 -6
7 -7 13 -3 13 23 0 -87 82 -128 95 -56 18 -155 18 -207 0z"/>
</g>
</svg>
